<svg id="9a514d6b-00d3-4e75-a23c-60bcb9c81ef5" data-name="63d08af7-2468-4873-9eb1-699bdf571bbd" xmlns="http://www.w3.org/2000/svg" viewBox="0 0 413.23 87"><title>kithub-logo-v3</title><path d="M0,87V1.8H23.4V34.2L49.32,1.8h26.4L44.76,40,77.88,87H51L29.88,55.68,23.4,62.4V87Z"/><path d="M184.2,22.2H159.72V87h-23.4V22.2h-24.6V1.8H184.2Z"/><path d="M255.56,1.8V87h-6.12V46.2H195.68V87h-6.12V1.8h6.12V40.68h53.76V1.8Z"/><path d="M303,81.36q8.64,0,14.34-3.24a24.93,24.93,0,0,0,9-8.52,36.08,36.08,0,0,0,4.68-12A67.51,67.51,0,0,0,332.35,44V1.2h6.12V44a70.09,70.09,0,0,1-1.86,16.32,39.41,39.41,0,0,1-6.06,13.74,30.07,30.07,0,0,1-10.92,9.42Q312.91,87,303.07,87q-10.2,0-17-3.66a30.36,30.36,0,0,1-11-9.72,39.73,39.73,0,0,1-5.88-13.74A71.31,71.31,0,0,1,267.43,44V1.2h6.12V44a68.07,68.07,0,0,0,1.38,13.8,34.2,34.2,0,0,0,4.8,11.94,25.7,25.7,0,0,0,9.06,8.4Q294.43,81.37,303,81.36Z"/><path d="M413.23,64.92a21,21,0,0,1-1.8,8.7,22.14,22.14,0,0,1-4.92,7,22.5,22.5,0,0,1-7.32,4.68,23.69,23.69,0,0,1-8.88,1.7H350.47V1.8h39.72a16.89,16.89,0,0,1,8,1.92,20,20,0,0,1,6.12,5,22.94,22.94,0,0,1,3.9,7,23.39,23.39,0,0,1,1.38,7.86,22.62,22.62,0,0,1-3.24,11.88,19.26,19.26,0,0,1-9,7.92,21.21,21.21,0,0,1,11.65,8A22.59,22.59,0,0,1,413.23,64.92ZM356.59,7.32V41.4h31.2a14,14,0,0,0,6.36-1.4,16.52,16.52,0,0,0,5-3.78,18.12,18.12,0,0,0,4.5-11.82,18.46,18.46,0,0,0-1.14-6.54,17.88,17.88,0,0,0-3.12-5.4,14.8,14.8,0,0,0-4.74-3.72,13.51,13.51,0,0,0-6.12-1.38Zm50.52,56.76a18.65,18.65,0,0,0-4.56-12.18,16.21,16.21,0,0,0-5.1-3.9,14.18,14.18,0,0,0-6.3-1.44H356.59V81.48h33.72A15.48,15.48,0,0,0,397,80a16.49,16.49,0,0,0,5.28-3.9,19.65,19.65,0,0,0,3.54-5.58A16.39,16.39,0,0,0,407.11,64.08Z"/><path d="M110.55,49.5V83.08A3.79,3.79,0,0,1,106.91,87H84.2a3.79,3.79,0,0,1-3.65-3.92V49.5a1.68,1.68,0,0,1,1.62-1.74h26.76A1.68,1.68,0,0,1,110.55,49.5Z" fill="#a32dbb"/><path d="M103.64,1.74a1.74,1.74,0,0,0-.93-1.57A1.5,1.5,0,0,0,101,.4L88.07,11.74a1.78,1.78,0,0,0-.6,1.36v6.13h16.17Z" fill="#a32dbb"/><path d="M106.42,24.45V44.28H84.68V24.45a1.68,1.68,0,0,1,1.62-1.74h18.5A1.68,1.68,0,0,1,106.42,24.45Z" fill="#a32dbb"/></svg>