<svg xmlns="http://www.w3.org/2000/svg" xmlns:xlink="http://www.w3.org/1999/xlink" xmlns:fi="http://pattern.flaticon.com/" x="0" y="0" width="700" height="350" viewBox="0 0 700 350"><rect x="0px" y="0px" width="100%" height="100%" opacity="1" fill="#ffffff"/><defs><g transform="matrix(0.1041666641831398 0 0 0.1041666641831398 62.5 150)" id="L1_101"><path d="M240,0C134.136,0,48,107.664,48,240s86.136,240,192,240s192-107.664,192-240S345.864,0,240,0z M240,464    c-97.048,0-176-100.488-176-224S142.952,16,240,16s176,100.488,176,224S337.048,464,240,464z"/><path d="M240,32c-88.224,0-160,93.312-160,208s71.776,208,160,208s160-93.312,160-208S328.224,32,240,32z M240,432    c-79.4,0-144-86.136-144-192S160.6,48,240,48s144,86.136,144,192S319.4,432,240,432z"/><rect x="125px" y="228px" width="237px" height="16px" transform="matrix(0.7071 -0.7071 0.7071 0.7071 -95.4275 241.6638)"/><rect x="85px" y="188px" width="237px" height="16px" transform="matrix(0.7071 -0.7071 0.7071 0.7071 -78.8592 201.6633)"/><rect x="165px" y="268px" width="237px" height="16px" transform="matrix(0.7071 -0.7071 0.7071 0.7071 -111.9958 281.6644)"/></g><path d="M411.648,28.878c-16.253-16.257-56.864-15.088-86.822-5.736c-16.949,5.291-29.949,12.606-37.746,20.997l-59.895,59.895  c-3.069-0.5-6.328,0.43-8.696,2.797l-70.501,70.502l-1.188-1.188c-3.906-3.904-10.236-3.904-14.143,0L8.763,300.039  C3.112,305.69,0,313.224,0,321.253c0,8.029,3.112,15.563,8.763,21.213l14.055,14.054c0.028,0.03,0.058,0.06,0.087,0.089  c0.029,0.029,0.059,0.059,0.089,0.087l36.532,36.532c5.65,5.651,13.184,8.764,21.213,8.764s15.563-3.112,21.214-8.763  l123.895-123.895c3.905-3.905,3.905-10.237,0-14.143l-1.188-1.188l70.502-70.501c2.367-2.367,3.3-5.627,2.797-8.696L407.673,65.092  c5.223-4.87,8.645-10.153,9.998-15.649C419.523,41.916,417.385,34.613,411.648,28.878z M87.81,379.086  c-1.873,1.873-4.385,2.905-7.071,2.905c-2.687,0-5.197-1.031-7.07-2.905l-29.55-29.55l62.912-62.911  c3.905-3.905,3.905-10.237,0-14.143c-3.906-3.904-10.236-3.904-14.143,0l-62.911,62.912l-7.072-7.071  c-1.873-1.873-2.904-4.384-2.904-7.07c0-2.686,1.032-5.198,2.905-7.071l116.823-116.823L153.87,211.5l-36.233,36.233  c-3.905,3.905-3.905,10.237,0,14.143c3.906,3.904,10.236,3.904,14.143,0l36.233-36.233l36.62,36.62L87.81,379.086z M210.518,239.861  l-48.389-48.388l63.431-63.43l48.388,48.389L210.518,239.861z M285.14,159.34l-42.488-42.489l40.938-40.938  c0.574,0.715,1.198,1.41,1.872,2.084c13.592,13.591,44.209,15.001,71.39,9.632L285.14,159.34z M398.25,44.661  c-0.287,1.166-1.234,2.714-2.911,4.483c-0.05,0.048-0.1,0.096-0.148,0.145l-0.879,0.879c-4.706,4.451-13.717,10.018-27.987,14.472  c0,0,0,0-0.001,0c-31.133,9.719-59.843,6.093-66.721-0.784c-0.922-0.922-0.851-1.209-0.744-1.643  c1.032-4.193,10.613-13.326,31.928-19.979c13.574-4.238,26.688-5.938,37.732-5.938c14.285,0,25.108,2.845,28.988,6.725  C398.428,43.94,398.357,44.228,398.25,44.661z" transform="matrix(0.11952543258666992 0 0 0.11952543258666992 237.5 150)" id="L1_102"/><g transform="matrix(0.11984468251466751 0 0 0.11984468251466751 137.99999815668593 -28)" id="L1_104"><path d="M113.576,109.704L146.76,26.72l-3.728-3.728C142.28,22.24,124.288,4.648,89.376,4.648S36.472,22.24,35.72,22.992    l-3.728,3.728l33.192,82.984l-6.872,54.944h-8.936v296c0,22.056,17.944,40,40,40c22.056,0,40-17.944,40-40v-296h-8.936    L113.576,109.704z M51.016,31.208c5.136-3.464,15.232-8.712,30.36-10.152v23.592h16V21.056c15.144,1.448,25.24,6.696,30.36,10.152    l-27.776,69.44H78.792L51.016,31.208z M104.32,164.648H74.44l6-48h17.88L104.32,164.648z M113.376,460.648    c0,13.232-10.768,24-24,24s-24-10.768-24-24v-232h48V460.648z M113.376,212.648h-48v-32h48V212.648z"/><path d="M273.544,109.456L310.024,0L190.096,39.976l35.04,70.088l-6.824,54.584h-8.936v296c0,22.056,17.944,40,40,40    c22.056,0,40-17.944,40-40v-296h-8.936L273.544,109.456z M212.656,49.32l72.072-24.024l-25.12,75.352H238.32L212.656,49.32z     M264.32,164.648h-29.88l6-48h17.88L264.32,164.648z M273.376,196.648h-32v16h32v248c0,13.232-10.768,24-24,24s-24-10.768-24-24    v-216h32v-16h-32v-48h48V196.648z"/><path d="M433.616,174.064l35.04-70.088L348.728,64l36.488,109.456l-6.904,55.192h-8.936v248c0,13.232,10.768,24,24,24h32    c13.232,0,24-10.768,24-24v-248h-8.936L433.616,174.064z M374.024,89.296l72.072,24.024l-25.664,51.328h-21.288L374.024,89.296z     M424.32,228.648h-29.88l6-48h17.88L424.32,228.648z M433.376,260.648h-32v16h32v200c0,4.408-3.592,8-8,8h-32    c-4.408,0-8-3.592-8-8v-168h32v-16h-32v-48h48V260.648z"/></g><g transform="matrix(-0.12499479204416275 0 0 0.12499479204416275 368.000000077039 -25)" id="L1_105"><path d="M248.01,272.02v-80h-16v-104h-0.312c0.488-16.8-9.848-38.68-28.952-58.264C184.81,11.42,163.33,0.02,146.626,0.02    c-7.3-0.282-14.396,2.442-19.632,7.536c-6.006,6.785-8.579,15.944-6.984,24.864v159.6h-16v80h-16v208h176v-208H248.01z     M138.41,18.732c2.252-1.985,5.217-2.965,8.208-2.712c12.368,0,29.896,9.784,44.672,24.92c21.488,22,29.168,47.016,21.68,54.68    c-2.243,1.978-5.195,2.96-8.176,2.72c-12.36,0-29.904-9.784-44.672-24.92C138.634,51.412,130.954,26.42,138.41,18.732z     M215.994,112.316v79.704H136.01V69.54c3.836,5.328,8.067,10.361,12.656,15.056c17.912,18.344,39.416,29.744,56.128,29.744    C208.621,114.373,212.421,113.687,215.994,112.316z M120.01,208.02h112v64h-112V208.02z M248.01,464.02h-144v-176h144V464.02z"/><path d="M352.01,272.02v-112h24v-16h-24v-16h24v-16h-24v-16h24v-16h-24v-16h24v-16h-24v-16h16v-16h-16v-16h-16v16h-16v16h16v16    h-24v16h24v16h-24v16h24v16h-24v16h24v16h-24v16h24v112h-40v208h96v-208H352.01z M376.01,464.02h-64v-176h64V464.02z"/></g></defs><g fi:class="KUsePattern" opacity="0.08"><pattern id="pattern_L1_101" width="350" height="350" patternUnits="userSpaceOnUse"><use xlink:href="#L1_101" x="-350" y="-350"/><use xlink:href="#L1_101" x="0" y="-350"/><use xlink:href="#L1_101" x="350" y="-350"/><use xlink:href="#L1_101" x="-350" y="0"/><use xlink:href="#L1_101" x="0" y="0"/><use xlink:href="#L1_101" x="350" y="0"/><use xlink:href="#L1_101" x="-350" y="350"/><use xlink:href="#L1_101" x="0" y="350"/><use xlink:href="#L1_101" x="350" y="350"/></pattern><rect x="0" y="0" width="100%" height="100%" fill="url(#pattern_L1_101)"/></g><g fi:class="KUsePattern" opacity="0.08"><pattern id="pattern_L1_102" width="350" height="350" patternUnits="userSpaceOnUse"><use xlink:href="#L1_102" x="-350" y="-350"/><use xlink:href="#L1_102" x="0" y="-350"/><use xlink:href="#L1_102" x="350" y="-350"/><use xlink:href="#L1_102" x="-350" y="0"/><use xlink:href="#L1_102" x="0" y="0"/><use xlink:href="#L1_102" x="350" y="0"/><use xlink:href="#L1_102" x="-350" y="350"/><use xlink:href="#L1_102" x="0" y="350"/><use xlink:href="#L1_102" x="350" y="350"/></pattern><rect x="0" y="0" width="100%" height="100%" fill="url(#pattern_L1_102)"/></g><g fi:class="KUsePattern" opacity="0.08"><pattern id="pattern_L1_104" width="350" height="350" patternUnits="userSpaceOnUse"><use xlink:href="#L1_104" x="-350" y="-350"/><use xlink:href="#L1_104" x="0" y="-350"/><use xlink:href="#L1_104" x="350" y="-350"/><use xlink:href="#L1_104" x="-350" y="0"/><use xlink:href="#L1_104" x="0" y="0"/><use xlink:href="#L1_104" x="350" y="0"/><use xlink:href="#L1_104" x="-350" y="350"/><use xlink:href="#L1_104" x="0" y="350"/><use xlink:href="#L1_104" x="350" y="350"/></pattern><rect x="0" y="0" width="100%" height="100%" fill="url(#pattern_L1_104)"/></g><g fi:class="KUsePattern" opacity="0.08"><pattern id="pattern_L1_105" width="350" height="350" patternUnits="userSpaceOnUse"><use xlink:href="#L1_105" x="-350" y="-350"/><use xlink:href="#L1_105" x="0" y="-350"/><use xlink:href="#L1_105" x="350" y="-350"/><use xlink:href="#L1_105" x="-350" y="0"/><use xlink:href="#L1_105" x="0" y="0"/><use xlink:href="#L1_105" x="350" y="0"/><use xlink:href="#L1_105" x="-350" y="350"/><use xlink:href="#L1_105" x="0" y="350"/><use xlink:href="#L1_105" x="350" y="350"/></pattern><rect x="0" y="0" width="100%" height="100%" fill="url(#pattern_L1_105)"/></g></svg>